<svg width="224" height="41" viewBox="0 0 224 41" fill="none" xmlns="http://www.w3.org/2000/svg">
<path d="M0.1 22.5C0.1 17.1 1.58333 12.7167 4.55 9.35C7.55 5.95 11.8167 4.25 17.35 4.25C22.8167 4.25 27.05 5.91667 30.05 9.25C33.0833 12.5833 34.6 17 34.6 22.5C34.6 27.9667 33.0833 32.3833 30.05 35.75C27.05 39.0833 22.8167 40.75 17.35 40.75C11.8833 40.75 7.63333 39.1 4.6 35.8C1.6 32.4667 0.1 28.0333 0.1 22.5ZM17.35 37.3C20.25 37.3 22.45 36.0167 23.95 33.45C25.45 30.85 26.2 27.2 26.2 22.5C26.2 17.8 25.4333 14.1667 23.9 11.6C22.4 9 20.2167 7.7 17.35 7.7C14.45 7.7 12.25 9 10.75 11.6C9.25 14.1667 8.5 17.8 8.5 22.5C8.5 27.2 9.23333 30.85 10.7 33.45C12.2 36.0167 14.4167 37.3 17.35 37.3ZM36.9336 40V37.35L41.1836 36.35V4.55H36.9336V1.9L44.9336 -5.96046e-07H48.8836V36.35L53.1336 37.35V40H36.9336ZM55.3594 33.8C55.3594 30.9 56.5427 28.7 58.9094 27.2C61.3094 25.6667 65.176 24.9 70.5094 24.9V23.4C70.5094 22.4 70.4927 21.6833 70.4594 21.25C70.4594 20.7833 70.3927 20.2333 70.2594 19.6C70.126 18.9667 69.926 18.5167 69.6594 18.25C69.426 17.9833 69.0594 17.75 68.5594 17.55C68.0594 17.3167 67.4427 17.2 66.7094 17.2L60.3594 22.7C58.0927 21.4 56.9594 19.3833 56.9594 16.65L58.4594 16C59.0927 15.7333 60.326 15.3833 62.1594 14.95C63.9927 14.4833 65.776 14.25 67.5094 14.25C74.676 14.25 78.2594 17.1167 78.2594 22.85V36.25H82.1594V38.4C81.9927 38.5667 81.7594 38.7833 81.4594 39.05C81.1594 39.3167 80.5094 39.6667 79.5094 40.1C78.5094 40.5333 77.476 40.75 76.4094 40.75C73.876 40.75 71.9927 39.9 70.7594 38.2C68.526 39.9 66.0927 40.75 63.4594 40.75C61.1594 40.75 59.226 40.1667 57.6594 39C56.126 37.8333 55.3594 36.1 55.3594 33.8ZM63.4094 33.35C63.4094 34.3167 63.726 35.0833 64.3594 35.65C65.026 36.2167 65.826 36.5 66.7594 36.5C68.2594 36.5 69.5094 35.95 70.5094 34.85V28C68.6427 28 66.9927 28.5 65.5594 29.5C64.126 30.4667 63.4094 31.75 63.4094 33.35ZM84.1227 40V37.2L88.7227 36.1V8.9L84.1227 7.8V5H98.2727C103.106 5 106.856 5.85 109.523 7.55C112.189 9.21666 113.523 12.0167 113.523 15.95C113.523 17.95 113.089 19.7 112.223 21.2C111.389 22.6667 110.239 23.8333 108.773 24.7C107.306 25.5333 105.689 26.1667 103.923 26.6C102.156 27 100.239 27.2 98.1727 27.2H96.8727V36.1L102.973 37.2V40H84.1227ZM96.8727 23.55H97.9227C99.956 23.55 101.673 22.9167 103.073 21.65C104.506 20.35 105.223 18.45 105.223 15.95C105.223 13.55 104.556 11.7333 103.223 10.5C101.923 9.26666 100.273 8.65 98.2727 8.65H96.8727V23.55ZM129.117 40.75C127.217 40.75 125.433 40.4167 123.767 39.75C122.133 39.0833 120.717 38.1667 119.517 37C118.317 35.8333 117.367 34.4333 116.667 32.8C115.967 31.1667 115.617 29.3833 115.617 27.45C115.617 25.5167 115.967 23.75 116.667 22.15C117.367 20.5167 118.317 19.1167 119.517 17.95C120.717 16.7833 122.133 15.8833 123.767 15.25C125.433 14.5833 127.217 14.25 129.117 14.25C131.017 14.25 132.783 14.5833 134.417 15.25C136.05 15.8833 137.467 16.7833 138.667 17.95C139.9 19.1167 140.85 20.5167 141.517 22.15C142.217 23.75 142.567 25.5167 142.567 27.45C142.567 29.35 142.217 31.1167 141.517 32.75C140.85 34.3833 139.9 35.8 138.667 37C137.467 38.1667 136.05 39.0833 134.417 39.75C132.783 40.4167 131.017 40.75 129.117 40.75ZM123.667 27.45C123.667 30.5833 124.117 33.05 125.017 34.85C125.95 36.6167 127.317 37.5 129.117 37.5C130.917 37.5 132.267 36.6167 133.167 34.85C134.1 33.05 134.567 30.5833 134.567 27.45C134.567 24.35 134.1 21.9167 133.167 20.15C132.267 18.3833 130.917 17.5 129.117 17.5C127.317 17.5 125.95 18.3833 125.017 20.15C124.117 21.9167 123.667 24.35 123.667 27.45ZM145.74 40V37.35L149.99 36.35V19.55H145.74V16.9L153.74 15H157.69V18C160.19 15.5 163.157 14.25 166.59 14.25C166.79 14.8833 166.89 15.5833 166.89 16.35C166.89 17.8833 166.724 19.3167 166.39 20.65L160.09 19.6C159.29 19.9667 158.49 20.5 157.69 21.2V36.35L162.94 37.35V40H145.74ZM168.98 18.5V16.5L177.48 10.45H179.33V15.25L185.53 15V18.5H179.33V32.8C179.33 34.4333 179.513 35.5833 179.88 36.25C180.247 36.9167 180.997 37.25 182.13 37.25C182.963 37.25 184.08 36.95 185.48 36.35L186.28 39.15C184.28 40.2167 182.163 40.75 179.93 40.75C174.397 40.75 171.63 38.1833 171.63 33.05V18.5H168.98ZM186.827 40V37.2L191.427 36.1L200.827 23.1L191.577 8.95L186.977 7.8V5H203.827V7.8L200.927 8.45L206.977 17.65L213.177 8.8L209.977 7.8V5H222.277V7.8L217.677 8.9L209.127 20.65L219.577 36.2L223.827 37.2V40H206.977V37.2L209.877 36.65L202.977 26.25L195.927 36.2L199.127 37.2V40H186.827Z" fill="#14183E"/>
</svg>
